/* XPM */
static const char *m1758929800[] = {
/* columns rows colors chars-per-pixel */
"32 32 42 1 ",
"  c #010201020102",
". c #121A121A121A",
"X c #26F426F426F4",
"o c #287428742874",
"O c #2E1F2E1F2E1F",
"+ c #312D312D312D",
"@ c #359C359C359C",
"# c #37DF37DF37DF",
"$ c #409A409A409A",
"% c #53D053D053D0",
"& c #56E156E156E1",
"* c #66E466E466E4",
"= c #6B7B6B7B6B7B",
"- c #6E2B6E2B6E2B",
"; c #710D710D710D",
": c #768276827682",
"> c #7F8D7F8D7F8D",
", c #887888788878",
"< c #8D478D478D47",
"1 c #A03CA03CA03C",
"2 c #A6FEA6FEA6FE",
"3 c #AC04AC04AC04",
"4 c #AD23AD23AD23",
"5 c #B28AB28AB28A",
"6 c #B707B707B707",
"7 c #BD2DBD2DBD2D",
"8 c #C20CC20CC20C",
"9 c #C4D0C4D0C4D0",
"0 c #C8D0C8D0C8D0",
"q c #CA1ECA1ECA1E",
"w c #D25DD25DD25D",
"e c #D4CAD4CAD4CA",
"r c #DCAADCAADCAA",
"t c #DECCDECCDECC",
"y c #E337E337E337",
"u c #E620E620E620",
"i c #EA61EA61EA61",
"p c #EFD8EFD8EFD8",
"a c #F079F079F079",
"s c #F4A4F4A4F4A4",
"d c #F9CAF9CAF9CA",
"f c white",
/* pixels */
"ffffffffffffffffffffffffffffffff",
"ffffffffffffffffffffffffffffffff",
"ffffffffffffffffffffffffffffffff",
"ffffffffffffffffffffffffffffffff",
"ffffffffffffffffffffffffffffffff",
"ffffffffffffffffffffffffffffffff",
"ffffffffffffffffffffffffffffffff",
"ffffffffffffffffffffffffffffffff",
"ffffffffffffffffffffffffffffffff",
"ffffffffffffffffffffffffffffffff",
"ffffffffffffffffffffffffffffffff",
"ffffffffffffffffffffffffffffffff",
"ffffffffffffffffffffffffffffffff",
"ffffffffffffffffffffffffffffffff",
"ffffffffffffaffdpfffpaffffffffff",
"fffffffffff<Od0% tp,$Osfffffffff",
"ffffffffff3t#68f&6<pp pfffffffff",
"fffffffffftuo6fdo;df0*ffffffffff",
"fffffffffff2:ffeXiff:8ffffffffff",
"ffffffffffa@tff<2ffy+sffffffffff",
"ffffffffff8-ffa.uff11y5fffffffff",
"ffffffffff-8ff7:ffdo,2dfffffffff",
"fffffffffs:aff40ffa>wfffffffffff",
"ffffffffffffffffffffffffffffffff",
"ffffffffffffffffffffffffffffffff",
"ffffffffffffffffffffffffffffffff",
"ffffffffffffffffffffffffffffffff",
"ffffffffffffffffffffffffffffffff",
"ffffffffffffffffffffffffffffffff",
"ffffffffffffffffffffffffffffffff",
"ffffffffffffffffffffffffffffffff",
"ffffffffffffffffffffffffffffffff"
};
